<svg width="1213" height="159" viewBox="0 0 1213 159" fill="none" xmlns="http://www.w3.org/2000/svg">
<g clip-path="url(#clip0_2989_1291)">
<path fill-rule="evenodd" clip-rule="evenodd" d="M100.869 41.8498C88.3807 29.3612 68.2068 29.3612 55.7183 41.8498C44.1903 54.3383 44.1903 74.5122 55.7183 87.0008C68.2068 99.4894 88.3807 99.4894 100.869 87.0008C113.358 74.5122 113.358 54.3383 100.869 41.8498ZM76.8528 79.3155L64.3642 66.8269C63.4035 65.8663 63.4035 63.9449 64.3642 62.0236L76.8528 50.4957C77.8134 48.5744 79.7348 48.5744 80.6954 50.4957L93.184 62.9843C94.1447 63.9449 94.1447 65.8663 93.184 67.7876L80.6954 79.3155C79.7348 80.2762 77.8134 80.2762 76.8528 79.3155Z" fill="#FF5000"/>
<path fill-rule="evenodd" clip-rule="evenodd" d="M492.819 138.876H432.297V124.466H486.094V117.742C486.094 115.82 484.173 114.86 483.212 114.86H432.297V102.371L434.219 95.6464H401.556V113.899H350.641C348.72 113.899 347.759 114.86 347.759 116.781V123.506H401.556V137.915H341.034C339.113 137.915 338.153 139.837 338.153 140.797V147.522H496.661V140.797C495.701 139.837 494.74 138.876 492.819 138.876Z" fill="#123180"/>
<path fill-rule="evenodd" clip-rule="evenodd" d="M495.701 86.0414V79.3167C495.701 77.3954 494.74 76.4348 492.819 76.4348H474.566V29.3624H496.661V22.6378C496.661 20.7165 495.701 19.7558 493.779 19.7558H475.527V15.9132L477.448 10.1492H443.825V19.7558H388.107V10.1492H358.326V19.7558H340.074C338.153 19.7558 337.192 21.6771 337.192 22.6378V29.3624H358.326V76.4348H340.074C338.153 76.4348 337.192 78.3561 337.192 79.3167V86.0414H355.444L336.231 108.137H365.051C366.972 108.137 368.894 106.215 370.815 105.255L388.107 86.0414H446.707L463.999 105.255C464.96 106.215 466.881 108.137 469.763 108.137H497.622L478.409 86.0414H495.701ZM443.825 76.4348H388.107V66.8282H443.825V76.4348ZM443.825 57.2216H388.107V48.5756H443.825V57.2216ZM443.825 38.0084H388.107V29.3624H443.825V38.0084Z" fill="#123180"/>
<path fill-rule="evenodd" clip-rule="evenodd" d="M660.933 138.878H638.838L655.169 109.097H630.192C628.271 109.097 625.389 110.058 624.428 111.979L610.018 138.878H601.372V101.412H662.855V95.6479C662.855 93.7266 660.933 92.766 659.973 92.766H601.372V81.2381V74.5134H653.248V68.7495C653.248 66.8281 651.327 65.8675 650.366 65.8675H520.677C518.756 65.8675 517.795 67.7888 517.795 68.7495V75.4741H569.671V92.766H511.07C509.149 92.766 508.188 94.6873 508.188 95.6479V102.373H569.671V138.878H561.025L547.576 111.979C546.615 110.058 544.694 109.097 541.812 109.097H514.913L530.284 138.878H509.149C507.228 138.878 506.267 140.799 506.267 141.76V148.484H664.776V141.76C664.776 139.838 662.855 138.878 660.933 138.878Z" fill="#123180"/>
<path fill-rule="evenodd" clip-rule="evenodd" d="M31.7018 86.0415L50.915 19.756H111.437L102.791 32.2446H124.886V67.789L115.279 66.8283C115.279 70.671 114.319 74.5136 112.397 78.3562L153.706 86.0415V38.9692L156.588 29.3626H136.414L148.902 10.1494H2.88198C1.92132 10.1494 0 12.0707 0 13.0314V19.756H19.2132L0 86.0415H31.7018Z" fill="#123180"/>
<path fill-rule="evenodd" clip-rule="evenodd" d="M155.627 138.877H148.903V100.451L153.706 88.9226H106.634C101.83 94.6866 95.1056 98.5292 86.4597 100.451V137.916H71.0891V100.451C63.4039 98.5292 56.6792 94.6866 51.8759 88.9226H8.64624V137.916H2.88228C0.960965 137.916 0.000305176 139.838 0.000305176 140.798V147.523H158.509V140.798C158.509 139.838 156.588 138.877 155.627 138.877ZM54.7579 138.877H39.3874V99.4899H54.7579V138.877ZM118.161 138.877H102.791V99.4899H118.161V138.877Z" fill="#123180"/>
<path fill-rule="evenodd" clip-rule="evenodd" d="M546.617 57.2216L549.499 55.3002L586.004 25.5198L624.43 57.2216C626.351 59.1429 629.233 60.1035 632.115 60.1035H665.738L613.863 14.9525C610.981 12.0706 607.138 10.1492 603.296 10.1492H587.925H582.161H566.79C562.948 10.1492 560.066 12.0706 557.184 13.9919L505.308 59.1429H538.931C541.813 59.1429 543.735 58.1822 546.617 57.2216Z" fill="#123180"/>
<path fill-rule="evenodd" clip-rule="evenodd" d="M195.012 10.1492H176.76L201.737 55.3002H227.675L206.54 16.8739C204.619 13.0312 199.816 10.1492 195.012 10.1492Z" fill="#123180"/>
<path fill-rule="evenodd" clip-rule="evenodd" d="M288.199 16.8739L267.064 55.3002H293.002L317.979 10.1492H299.727C294.923 10.1492 291.081 13.0312 288.199 16.8739Z" fill="#123180"/>
<path fill-rule="evenodd" clip-rule="evenodd" d="M285.317 71.6315H326.625V64.9068C326.625 62.9855 324.704 62.0249 323.744 62.0249H264.183V10.1492H231.52V61.0642H171.959C170.038 61.0642 169.077 62.9855 169.077 63.9462V70.6708H210.386L169.077 147.524H195.015C196.936 147.524 199.818 146.563 200.779 144.642L232.481 86.0414V148.484H265.143V86.0414L296.845 144.642C297.806 146.563 299.727 148.484 302.609 148.484H328.547L285.317 71.6315Z" fill="#123180"/>
</g>
<path d="M731.663 134.255V24.3781" stroke="#CCCCCC" stroke-width="3.46979"/>
<path fill-rule="evenodd" clip-rule="evenodd" d="M875.218 0C918.09 0 952.849 35.5114 952.849 79.3165V79.3165L952.827 81.2457C952.692 87.0166 951.952 92.6354 950.672 98.0352V98.0352L950.413 99.0968C941.811 133.333 911.409 158.633 875.218 158.633V158.633L873.934 158.622C831.652 157.922 797.589 122.683 797.589 79.3165V79.3165L797.6 78.0048C798.285 34.8048 832.772 0 875.218 0ZM875.219 3.37393L874.096 3.38246C841.61 3.87642 814.121 25.7818 804.537 55.8675V55.8675L804.129 57.267C802.967 61.4915 802.34 65.9442 802.34 70.5503C802.34 97.6194 823.818 119.568 850.314 119.568V119.568L851.306 119.558C873.085 119.106 891.303 103.823 896.68 83.1908V83.1908L896.937 82.2791C901.392 67.2519 914.475 60.5985 925.359 60.5985V60.5985L926.396 60.6167C931.558 60.7978 936.381 62.3262 940.55 64.8698V64.8698L941.128 65.2358C946.075 68.4999 949.376 74.1413 949.509 80.5778V80.5778L949.542 79.3173L949.532 78.0634C948.874 36.7656 915.79 3.37393 875.219 3.37393V3.37393Z" fill="#1B88EE"/>
<path fill-rule="evenodd" clip-rule="evenodd" d="M815.852 74.8968C810.68 74.8968 807.566 78.0996 807.566 82.0489V82.0489C807.566 82.8117 807.691 83.5502 807.91 84.2426V84.2426C813.739 102.74 831.057 116.192 851.458 116.192V116.192C862.927 116.192 873.415 111.928 881.44 104.917V104.917C878.202 105.65 874.835 106.05 871.378 106.05V106.05C854.807 106.05 840.275 97.1726 832.277 83.9234V83.9234H832.271C828.99 78.5134 823.044 74.8968 816.252 74.8968V74.8968H815.852Z" fill="#1B88EE"/>
<mask id="mask0_2989_1291" style="mask-type:luminance" maskUnits="userSpaceOnUse" x="1126" y="42" width="15" height="21">
<path fill-rule="evenodd" clip-rule="evenodd" d="M1126.96 42.8043C1129.85 47.135 1132.5 54.7145 1132.37 60.1245V60.1245C1133.46 61.45 1134.66 62.0505 1135.86 62.0505V62.0505C1138.39 62.0505 1140.56 59.6457 1140.56 56.1563V56.1563C1140.56 52.4233 1137.89 47.3027 1129.86 42.8043V42.8043H1126.96Z" fill="white"/>
</mask>
<g mask="url(#mask0_2989_1291)">
<path fill-rule="evenodd" clip-rule="evenodd" d="M1119.03 69.9824H1148.49V34.874H1119.03V69.9824Z" fill="#1B88EE"/>
</g>
<mask id="mask1_2989_1291" style="mask-type:luminance" maskUnits="userSpaceOnUse" x="1131" y="91" width="82" height="45">
<path fill-rule="evenodd" clip-rule="evenodd" d="M1191.06 96.8805H1136.83L1139.54 100.749H1151.02C1155.41 108.19 1161.29 114.45 1168.4 119.494V119.494C1158.05 125.559 1145.59 130.206 1131.72 133.331V133.331V135.492C1147.95 132.965 1162.15 128.994 1174.05 123.103V123.103C1183.08 128.516 1193.78 132.365 1205.33 135.129V135.129H1205.33C1206.24 131.415 1208.96 128.424 1212.49 127.09V127.09C1212.63 127.044 1212.76 126.987 1212.91 126.949V126.949V125.629C1202.32 124.304 1191.86 121.899 1182.36 118.529V118.529C1189.12 114.274 1194.79 109.318 1199.37 103.494V103.494H1201.58C1203.89 103.494 1205.94 102.391 1207.25 100.686V100.686L1194.6 91.8248L1191.06 96.8805ZM1154.31 100.748H1189.51C1185.64 106.196 1180.64 111.111 1174.78 115.285V115.285C1166.5 111.541 1159.43 106.72 1154.31 100.748V100.748Z" fill="white"/>
</mask>
<g mask="url(#mask1_2989_1291)">
<path fill-rule="evenodd" clip-rule="evenodd" d="M1123.78 143.423H1220.84V83.8934H1123.78V143.423Z" fill="#1B88EE"/>
</g>
<mask id="mask2_2989_1291" style="mask-type:luminance" maskUnits="userSpaceOnUse" x="1099" y="47" width="13" height="32">
<path fill-rule="evenodd" clip-rule="evenodd" d="M1107.05 47.8014C1107.17 48.6427 1107.17 49.4839 1107.17 50.4469V50.4469C1107.17 57.9046 1104.52 65.9656 1101.76 69.4524V69.4524C1100.31 70.8968 1099.35 72.7011 1099.35 74.5053V74.5053C1099.35 76.672 1100.67 78.2328 1102.96 78.2328V78.2328C1111.51 78.2328 1111.75 65.7221 1111.75 63.0766V63.0766C1111.75 58.6269 1111.02 53.5739 1109.22 47.8014V47.8014H1107.05Z" fill="white"/>
</mask>
<g mask="url(#mask2_2989_1291)">
<path fill-rule="evenodd" clip-rule="evenodd" d="M1091.42 86.1654H1119.68V39.869H1091.42V86.1654Z" fill="#1B88EE"/>
</g>
<mask id="mask3_2989_1291" style="mask-type:luminance" maskUnits="userSpaceOnUse" x="979" y="27" width="115" height="102">
<path fill-rule="evenodd" clip-rule="evenodd" d="M1056.65 33.367H1012.12L1003.18 29.1959V125.127H979.363L982.071 128.995H1087.39C1089.7 128.995 1091.75 127.894 1093.06 126.19V126.19L1080.4 117.328L1074.94 125.127H1068.01V38.7797C1070.33 38.7797 1072.38 37.6734 1073.69 35.9719V35.9719L1061.03 27.1103L1056.65 33.367ZM1012.81 63.9549H1057.89V37.2347H1012.81V63.9549ZM1012.81 94.5401H1057.89V67.82H1012.81V94.5401ZM1012.81 125.13H1057.89V98.4097H1012.81V125.13Z" fill="white"/>
</mask>
<g mask="url(#mask3_2989_1291)">
<path fill-rule="evenodd" clip-rule="evenodd" d="M971.429 136.928H1100.99V19.179H971.429V136.928Z" fill="#1B88EE"/>
</g>
<mask id="mask4_2989_1291" style="mask-type:luminance" maskUnits="userSpaceOnUse" x="1145" y="24" width="62" height="38">
<path fill-rule="evenodd" clip-rule="evenodd" d="M1190.36 29.1553H1154.45L1145.42 24.9436V61.9969H1147.18C1150.23 61.9969 1152.99 60.8094 1155.06 58.8861V58.8861V56.8222H1191.22V61.9969H1192.99C1196.03 61.9969 1198.79 60.8094 1200.86 58.8861V58.8861V35.7718H1200.88C1203.19 35.7718 1205.25 34.6681 1206.55 32.9639V32.9639L1193.89 24.1023L1190.36 29.1553ZM1155.06 41.0548H1191.22V33.0237H1155.06V41.0548ZM1155.06 52.9537H1191.22V44.9225H1155.06V52.9537Z" fill="white"/>
</mask>
<g mask="url(#mask4_2989_1291)">
<path fill-rule="evenodd" clip-rule="evenodd" d="M1137.49 69.9241H1214.48V16.17H1137.49V69.9241Z" fill="#1B88EE"/>
</g>
<mask id="mask5_2989_1291" style="mask-type:luminance" maskUnits="userSpaceOnUse" x="1139" y="61" width="73" height="32">
<path fill-rule="evenodd" clip-rule="evenodd" d="M1197.31 66.3274H1147.94L1139.25 62.2726L1139.17 62.2347V92.5498H1140.93C1143.98 92.5498 1146.74 91.365 1148.81 89.4417V89.4417V88.3381H1197.5V91.8249H1199.56C1202.44 91.8249 1207.01 90.0206 1207.13 89.3011V89.3011V71.824C1208.97 71.5264 1210.57 70.5337 1211.66 69.1163V69.1163L1200.71 61.4557L1197.31 66.3274ZM1187.69 84.469H1197.5V70.192H1187.69V84.469ZM1168.25 84.469H1178.06V70.192H1168.25V84.469ZM1148.81 84.469H1158.61V70.192H1148.81V84.469Z" fill="white"/>
</mask>
<g mask="url(#mask5_2989_1291)">
<path fill-rule="evenodd" clip-rule="evenodd" d="M1131.24 100.477H1219.59V53.521H1131.24V100.477Z" fill="#1B88EE"/>
</g>
<mask id="mask6_2989_1291" style="mask-type:luminance" maskUnits="userSpaceOnUse" x="1115" y="23" width="16" height="113">
<path fill-rule="evenodd" clip-rule="evenodd" d="M1115.83 135.492H1117.59C1120.64 135.492 1123.4 134.307 1125.47 132.384V132.384V32.4688C1127.32 32.1794 1128.94 31.1866 1130.03 29.7611V29.7611L1115.83 23.1392V135.492Z" fill="white"/>
</mask>
<g mask="url(#mask6_2989_1291)">
<path fill-rule="evenodd" clip-rule="evenodd" d="M1107.9 143.426H1137.96V15.2106H1107.9V143.426Z" fill="#1B88EE"/>
</g>
<defs>
<clipPath id="clip0_2989_1291">
<rect width="665.737" height="138.335" fill="white" transform="translate(0 10.149)"/>
</clipPath>
</defs>
</svg>
