<svg width="759" height="290" viewBox="0 0 759 290" fill="none" xmlns="http://www.w3.org/2000/svg">
<path fill-rule="evenodd" clip-rule="evenodd" d="M141.781 0C220.082 0 283.567 64.8582 283.567 144.864V144.864L283.526 148.387C283.279 158.927 281.929 169.19 279.59 179.052V179.052L279.117 180.991C263.407 243.519 207.88 289.728 141.781 289.728V289.728L139.436 289.708C62.2117 288.429 0 224.069 0 144.864V144.864L0.0189938 142.468C1.27098 63.5675 64.2579 0 141.781 0ZM141.782 6.16216L139.733 6.17773C80.3996 7.07991 30.1936 47.088 12.6883 102.036V102.036L11.9445 104.593C9.82114 112.308 8.67664 120.441 8.67664 128.853C8.67664 178.292 47.9038 218.379 96.2954 218.379V218.379L98.1079 218.36C137.885 217.535 171.159 189.623 180.98 151.94V151.94L181.449 150.275C189.585 122.829 213.48 110.677 233.358 110.677V110.677L235.252 110.71C244.681 111.041 253.489 113.833 261.104 118.478V118.478L262.16 119.147C271.195 125.108 277.224 135.412 277.467 147.167V147.167L277.526 144.865L277.508 142.575C276.307 67.1488 215.881 6.16216 141.782 6.16216V6.16216Z" fill="white"/>
<path fill-rule="evenodd" clip-rule="evenodd" d="M33.3545 136.792C23.9084 136.792 18.2219 142.641 18.2219 149.854V149.854C18.2219 151.247 18.4492 152.596 18.8494 153.861V153.861C29.496 187.644 61.1248 212.213 98.3856 212.213V212.213C119.333 212.213 138.487 204.426 153.145 191.621V191.621C147.232 192.96 141.081 193.691 134.767 193.691V193.691C104.502 193.691 77.9618 177.476 63.3529 153.278V153.278H63.343C57.3503 143.397 46.4912 136.792 34.0857 136.792V136.792H33.3545Z" fill="white"/>
<mask id="mask0_2989_263" style="mask-type:luminance" maskUnits="userSpaceOnUse" x="601" y="78" width="26" height="36">
<path fill-rule="evenodd" clip-rule="evenodd" d="M601.571 78.1779C606.843 86.0875 611.674 99.9306 611.452 109.812V109.812C613.433 112.232 615.632 113.329 617.825 113.329V113.329C622.44 113.329 626.397 108.937 626.397 102.564V102.564C626.397 95.7461 621.53 86.3938 606.867 78.1779V78.1779H601.571Z" fill="white"/>
</mask>
<g mask="url(#mask0_2989_263)">
<path fill-rule="evenodd" clip-rule="evenodd" d="M587.087 127.816H640.889V63.6939H587.087V127.816Z" fill="white"/>
</g>
<mask id="mask1_2989_263" style="mask-type:luminance" maskUnits="userSpaceOnUse" x="610" y="167" width="149" height="81">
<path fill-rule="evenodd" clip-rule="evenodd" d="M718.632 176.943H619.586L624.531 184.008H645.498C653.522 197.599 664.267 209.031 677.251 218.245V218.245C658.353 229.321 635.593 237.809 610.248 243.515V243.515V247.463C639.901 242.848 665.828 235.596 687.576 224.835V224.835C704.057 234.721 723.612 241.751 744.698 246.801V246.801H744.702C746.362 240.017 751.323 234.553 757.77 232.118V232.118C758.032 232.034 758.269 231.93 758.541 231.861V231.861V229.45C739.209 227.029 720.094 222.637 702.738 216.481V216.481C715.089 208.71 725.44 199.659 733.819 189.022V189.022H737.85C742.069 189.022 745.819 187.006 748.2 183.894V183.894L725.094 167.709L718.632 176.943ZM651.522 184.006H715.807C708.732 193.956 699.597 202.933 688.901 210.556V210.556C673.788 203.718 660.869 194.915 651.522 184.006V184.006Z" fill="white"/>
</mask>
<g mask="url(#mask1_2989_263)">
<path fill-rule="evenodd" clip-rule="evenodd" d="M595.759 261.947H773.032V153.223H595.759V261.947Z" fill="white"/>
</g>
<mask id="mask2_2989_263" style="mask-type:luminance" maskUnits="userSpaceOnUse" x="551" y="87" width="23" height="56">
<path fill-rule="evenodd" clip-rule="evenodd" d="M565.205 87.3046C565.422 88.841 565.422 90.3775 565.422 92.1363V92.1363C565.422 105.757 560.585 120.48 555.536 126.848V126.848C552.898 129.486 551.144 132.781 551.144 136.077V136.077C551.144 140.034 553.555 142.885 557.735 142.885V142.885C573.337 142.885 573.776 120.035 573.776 115.203V115.203C573.776 107.076 572.447 97.8475 569.157 87.3046V87.3046H565.205Z" fill="white"/>
</mask>
<g mask="url(#mask2_2989_263)">
<path fill-rule="evenodd" clip-rule="evenodd" d="M536.655 157.373H588.258V72.8168H536.655V157.373Z" fill="white"/>
</g>
<mask id="mask3_2989_263" style="mask-type:luminance" maskUnits="userSpaceOnUse" x="331" y="49" width="209" height="187">
<path fill-rule="evenodd" clip-rule="evenodd" d="M473.155 60.9415H391.815L375.492 53.3234V228.531H331.992L336.937 235.596H529.288C533.517 235.596 537.262 233.585 539.643 230.473V230.473L516.532 214.288L506.562 228.531H493.905V70.8274C498.134 70.8274 501.879 68.8067 504.265 65.6992V65.6992L481.154 49.5143L473.155 60.9415ZM393.086 116.807H475.408V68.0056H393.086V116.807ZM393.086 172.668H475.408V123.867H393.086V172.668ZM393.086 228.537H475.408V179.736H393.086V228.537Z" fill="white"/>
</mask>
<g mask="url(#mask3_2989_263)">
<path fill-rule="evenodd" clip-rule="evenodd" d="M317.501 250.086H554.128V35.0286H317.501V250.086Z" fill="white"/>
</g>
<mask id="mask4_2989_263" style="mask-type:luminance" maskUnits="userSpaceOnUse" x="635" y="44" width="112" height="70">
<path fill-rule="evenodd" clip-rule="evenodd" d="M717.352 53.2493H651.777L635.286 45.557V113.231H638.502C644.065 113.231 649.109 111.062 652.884 107.55V107.55V103.78H718.933V113.231H722.154C727.712 113.231 732.756 111.062 736.526 107.55V107.55V65.3336H736.57C740.794 65.3336 744.544 63.3179 746.925 60.2054V60.2054L723.809 44.0205L717.352 53.2493ZM652.885 74.9827H718.934V60.3145H652.885V74.9827ZM652.885 96.7148H718.934V82.0466H652.885V96.7148Z" fill="white"/>
</mask>
<g mask="url(#mask4_2989_263)">
<path fill-rule="evenodd" clip-rule="evenodd" d="M620.801 127.709H761.411V29.533H620.801V127.709Z" fill="white"/>
</g>
<mask id="mask5_2989_263" style="mask-type:luminance" maskUnits="userSpaceOnUse" x="623" y="112" width="134" height="58">
<path fill-rule="evenodd" clip-rule="evenodd" d="M730.044 121.14H639.881L624.017 113.735L623.864 113.666V169.033H627.085C632.643 169.033 637.682 166.869 641.461 163.357V163.357V161.341H730.394V167.709H734.154C739.426 167.709 747.775 164.414 747.992 163.1V163.1V131.179C751.352 130.636 754.277 128.823 756.263 126.234V126.234L736.269 112.243L730.044 121.14ZM712.481 154.274H730.395V128.199H712.481V154.274ZM676.969 154.274H694.888V128.199H676.969V154.274ZM641.462 154.274H659.376V128.199H641.462V154.274Z" fill="white"/>
</mask>
<g mask="url(#mask5_2989_263)">
<path fill-rule="evenodd" clip-rule="evenodd" d="M609.378 183.512H770.748V97.7508H609.378V183.512Z" fill="white"/>
</g>
<mask id="mask6_2989_263" style="mask-type:luminance" maskUnits="userSpaceOnUse" x="581" y="42" width="27" height="206">
<path fill-rule="evenodd" clip-rule="evenodd" d="M581.236 247.463H584.458C590.016 247.463 595.065 245.299 598.834 241.786V241.786V59.3011C602.214 58.7724 605.173 56.9593 607.164 54.3557V54.3557L581.236 42.2615V247.463Z" fill="white"/>
</mask>
<g mask="url(#mask6_2989_263)">
<path fill-rule="evenodd" clip-rule="evenodd" d="M566.757 261.953H621.655V27.7806H566.757V261.953Z" fill="white"/>
</g>
</svg>
