<svg width="1344" height="159" viewBox="0 0 1344 159" fill="none" xmlns="http://www.w3.org/2000/svg">
<path fill-rule="evenodd" clip-rule="evenodd" d="M77.6854 0C120.589 0 155.374 35.5375 155.374 79.3746V79.3746L155.351 81.3052C155.216 87.0803 154.476 92.7033 153.194 98.107V98.107L152.935 99.1694C144.328 133.43 113.903 158.749 77.6854 158.749V158.749L76.4007 158.739C34.0874 158.038 0 122.773 0 79.3746V79.3746L0.0104072 78.062C0.696403 34.8303 35.2086 0 77.6854 0ZM77.6861 3.3764L76.5631 3.38494C44.053 3.87926 16.5439 25.8007 6.95223 55.9084V55.9084L6.54468 57.309C5.38125 61.5365 4.75415 65.9925 4.75415 70.602C4.75415 97.6909 26.2477 119.655 52.7627 119.655V119.655L53.7558 119.645C75.5507 119.193 93.7822 103.899 99.1634 83.2518V83.2518L99.4204 82.3394C103.878 67.3011 116.971 60.6429 127.863 60.6429V60.6429L128.901 60.6611C134.067 60.8423 138.893 62.3718 143.065 64.9173V64.9173L143.644 65.2835C148.595 68.55 151.898 74.1956 152.031 80.6368V80.6368L152.064 79.3753L152.054 78.1206C151.395 36.7925 118.287 3.3764 77.6861 3.3764V3.3764Z" fill="#1B88EE"/>
<path fill-rule="evenodd" clip-rule="evenodd" d="M18.2758 74.9517C13.1 74.9517 9.98425 78.1567 9.98425 82.109V82.109C9.98425 82.8723 10.1088 83.6113 10.328 84.3043V84.3043C16.1616 102.815 33.4918 116.277 53.908 116.277V116.277C65.3857 116.277 75.8807 112.01 83.9123 104.994V104.994C80.6721 105.728 77.3019 106.128 73.8423 106.128V106.128C57.2592 106.128 42.7173 97.2438 34.7127 83.9849V83.9849H34.7073C31.4237 78.5709 25.4737 74.9517 18.6764 74.9517V74.9517H18.2758Z" fill="#1B88EE"/>
<mask id="mask0_2989_135" style="mask-type:luminance" maskUnits="userSpaceOnUse" x="329" y="42" width="15" height="21">
<path fill-rule="evenodd" clip-rule="evenodd" d="M329.616 42.8357C332.505 47.1696 335.152 54.7546 335.03 60.1686V60.1686C336.116 61.495 337.32 62.096 338.522 62.096V62.096C341.051 62.096 343.219 59.6895 343.219 56.1974V56.1974C343.219 52.4618 340.552 47.3374 332.518 42.8357V42.8357H329.616Z" fill="white"/>
</mask>
<g mask="url(#mask0_2989_135)">
<path fill-rule="evenodd" clip-rule="evenodd" d="M321.68 70.0336H351.159V34.8995H321.68V70.0336Z" fill="#1B88EE"/>
</g>
<mask id="mask1_2989_135" style="mask-type:luminance" maskUnits="userSpaceOnUse" x="334" y="91" width="82" height="45">
<path fill-rule="evenodd" clip-rule="evenodd" d="M393.757 96.9515H339.487L342.197 100.822H353.685C358.081 108.269 363.969 114.533 371.083 119.582V119.582C360.729 125.651 348.258 130.302 334.371 133.428V133.428V135.591C350.618 133.063 364.824 129.089 376.741 123.193V123.193C385.771 128.61 396.485 132.462 408.039 135.228V135.228H408.042C408.951 131.512 411.669 128.518 415.202 127.183V127.183C415.345 127.137 415.475 127.08 415.624 127.042V127.042V125.721C405.031 124.395 394.558 121.988 385.048 118.616V118.616C391.816 114.357 397.487 109.398 402.078 103.57V103.57H404.287C406.599 103.57 408.653 102.466 409.958 100.76V100.76L397.297 91.8921L393.757 96.9515ZM356.985 100.822H392.209C388.332 106.274 383.327 111.192 377.467 115.369V115.369C369.186 111.623 362.107 106.799 356.985 100.822V100.822Z" fill="white"/>
</mask>
<g mask="url(#mask1_2989_135)">
<path fill-rule="evenodd" clip-rule="evenodd" d="M326.431 143.528H423.564V83.9548H326.431V143.528Z" fill="#1B88EE"/>
</g>
<mask id="mask2_2989_135" style="mask-type:luminance" maskUnits="userSpaceOnUse" x="301" y="47" width="14" height="32">
<path fill-rule="evenodd" clip-rule="evenodd" d="M309.69 47.8364C309.809 48.6783 309.809 49.5202 309.809 50.4839V50.4839C309.809 57.9471 307.159 66.0139 304.393 69.5032V69.5032C302.947 70.9488 301.986 72.7543 301.986 74.5599V74.5599C301.986 76.7282 303.307 78.2901 305.597 78.2901V78.2901C314.146 78.2901 314.387 65.7703 314.387 63.1228V63.1228C314.387 58.6698 313.659 53.6132 311.856 47.8364V47.8364H309.69Z" fill="white"/>
</mask>
<g mask="url(#mask2_2989_135)">
<path fill-rule="evenodd" clip-rule="evenodd" d="M294.047 86.2285H322.321V39.8982H294.047V86.2285Z" fill="#1B88EE"/>
</g>
<mask id="mask3_2989_135" style="mask-type:luminance" maskUnits="userSpaceOnUse" x="181" y="27" width="115" height="103">
<path fill-rule="evenodd" clip-rule="evenodd" d="M259.254 33.3914H214.686L205.742 29.2172V125.218H181.907L184.616 129.089H290.011C292.328 129.089 294.38 127.987 295.684 126.282V126.282L283.021 117.414L277.558 125.218H270.623V38.8081C272.94 38.8081 274.992 37.701 276.3 35.9982V35.9982L263.636 27.1301L259.254 33.3914ZM215.382 64.0017H260.488V37.262H215.382V64.0017ZM215.382 94.6093H260.488V67.8696H215.382V94.6093ZM215.382 125.221H260.488V98.4817H215.382V125.221Z" fill="white"/>
</mask>
<g mask="url(#mask3_2989_135)">
<path fill-rule="evenodd" clip-rule="evenodd" d="M173.967 137.029H303.621V19.193H173.967V137.029Z" fill="#1B88EE"/>
</g>
<mask id="mask4_2989_135" style="mask-type:luminance" maskUnits="userSpaceOnUse" x="348" y="24" width="62" height="39">
<path fill-rule="evenodd" clip-rule="evenodd" d="M393.055 29.1767H357.125L348.089 24.9619V62.0423H349.852C352.9 62.0423 355.664 60.854 357.732 58.9293V58.9293V56.8638H393.922V62.0423H395.687C398.732 62.0423 401.496 60.854 403.561 58.9293V58.9293V35.798H403.586C405.9 35.798 407.955 34.6935 409.259 32.9881V32.9881L396.593 24.12L393.055 29.1767ZM357.732 41.085H393.922V33.0479H357.732V41.085ZM357.732 52.9925H393.922V44.9554H357.732V52.9925Z" fill="white"/>
</mask>
<g mask="url(#mask4_2989_135)">
<path fill-rule="evenodd" clip-rule="evenodd" d="M340.153 69.9753H417.197V16.1819H340.153V69.9753Z" fill="#1B88EE"/>
</g>
<mask id="mask5_2989_135" style="mask-type:luminance" maskUnits="userSpaceOnUse" x="341" y="61" width="74" height="32">
<path fill-rule="evenodd" clip-rule="evenodd" d="M400.01 66.3759H350.607L341.915 62.3181L341.831 62.2802V92.6175H343.596C346.641 92.6175 349.402 91.4319 351.473 89.5072V89.5072V88.4027H400.202V91.8921H402.262C405.15 91.8921 409.725 90.0865 409.844 89.3664V89.3664V71.8765C411.685 71.5788 413.287 70.5853 414.376 69.1668V69.1668L403.42 61.5006L400.01 66.3759ZM390.386 84.5308H400.202V70.2433H390.386V84.5308ZM370.929 84.5308H380.747V70.2433H370.929V84.5308ZM351.474 84.5308H361.289V70.2433H351.474V84.5308Z" fill="white"/>
</mask>
<g mask="url(#mask5_2989_135)">
<path fill-rule="evenodd" clip-rule="evenodd" d="M333.894 100.551H422.313V53.5601H333.894V100.551Z" fill="#1B88EE"/>
</g>
<mask id="mask6_2989_135" style="mask-type:luminance" maskUnits="userSpaceOnUse" x="318" y="23" width="15" height="113">
<path fill-rule="evenodd" clip-rule="evenodd" d="M318.474 135.591H320.239C323.285 135.591 326.051 134.406 328.117 132.481V132.481V32.4926C329.968 32.2029 331.59 31.2094 332.681 29.7829V29.7829L318.474 23.1561V135.591Z" fill="white"/>
</mask>
<g mask="url(#mask6_2989_135)">
<path fill-rule="evenodd" clip-rule="evenodd" d="M310.541 143.531H340.621V15.2217H310.541V143.531Z" fill="#1B88EE"/>
</g>
<path d="M469.673 124.924V32.9599" stroke="#0985F1" stroke-width="6.45361"/>
<path d="M1285.92 49.2103H1275.99C1273.66 49.2103 1271.63 49.5475 1269.92 50.2219L1266.61 45.9916C1268.81 46.2981 1271.3 46.4514 1274.06 46.4514H1324.54L1330.61 39.0023L1338.06 47.7389C1338.37 48.1067 1338.52 48.4439 1338.52 48.7505C1338.52 49.057 1338.06 49.2103 1337.14 49.2103H1319.03V75.1441H1329.23L1335.3 67.6951L1342.75 76.5236C1342.94 76.8915 1343.03 77.2593 1343.03 77.6272C1343.03 77.9337 1342.63 78.087 1341.83 78.087H1319.03V98.319C1319.03 104.143 1319.06 108.435 1319.12 111.194C1319.24 114.014 1319.3 115.516 1319.3 115.7C1319.3 116.865 1318.41 117.969 1316.63 119.011C1314.86 120.053 1313.6 120.574 1312.86 120.574C1312.19 120.574 1311.85 119.777 1311.85 118.183L1312.31 108.803C1312.5 104.695 1312.59 100.496 1312.59 96.2039V78.087H1292.26C1291.77 90.4715 1289.47 99.5759 1285.37 105.4C1281.26 111.225 1273.2 116.344 1261.18 120.758L1260.54 118.735C1267.53 115.424 1272.92 111.746 1276.72 107.699C1280.52 103.592 1282.88 99.3306 1283.8 94.9164C1284.72 90.4408 1285.37 84.831 1285.73 78.087H1269.64C1267.25 78.087 1265.23 78.3935 1263.57 79.0066L1260.17 74.6843C1262.44 74.9909 1264.92 75.1441 1267.62 75.1441H1285.83C1286.01 71.0364 1286.1 66.7754 1286.1 62.3612C1286.1 57.9469 1286.04 53.5633 1285.92 49.2103ZM1312.59 49.2103H1292.82C1292.94 58.8972 1292.79 67.5418 1292.36 75.1441H1312.59V49.2103Z" fill="#0985F1"/>
<path d="M1224.67 51.9692H1239.02L1244.72 45.0719L1250.97 52.8888C1251.34 53.4406 1251.52 53.8698 1251.52 54.1763C1251.52 54.4216 1251.1 54.5442 1250.24 54.5442H1224.67C1224.67 57.2418 1224.7 59.1424 1224.76 60.2459C1224.89 61.3495 1224.95 61.9933 1224.95 62.1772C1224.95 62.9742 1224.06 63.7712 1222.28 64.5682C1220.5 65.3653 1219.37 65.7638 1218.88 65.7638C1218.2 65.7638 1217.87 65.3346 1217.87 64.4763C1217.87 63.618 1217.9 62.4837 1217.96 61.0736C1218.08 59.6022 1218.14 57.4257 1218.14 54.5442H1200.12C1200.12 56.8739 1200.15 58.5599 1200.21 59.6022C1200.33 60.6445 1200.39 61.2269 1200.39 61.3495C1200.39 62.4531 1199.63 63.2808 1198.09 63.8325C1196.56 64.3843 1195.33 64.6602 1194.41 64.6602C1193.56 64.6602 1193.19 63.8325 1193.31 62.1772C1193.56 59.6635 1193.68 57.1192 1193.68 54.5442H1175.75C1173.23 54.5442 1171.15 54.8814 1169.49 55.5558L1166.27 51.4174C1168.54 51.7853 1171.09 51.9692 1173.91 51.9692H1193.68V45.7156C1193.68 43.202 1193.56 40.3204 1193.31 37.071L1201.59 40.7496C1202.39 41.1175 1202.78 41.4547 1202.78 41.7612C1202.78 42.0677 1202.51 42.4049 1201.96 42.7728L1200.12 44.1523V51.9692H1218.14V45.7156C1218.14 43.202 1218.05 40.3204 1217.87 37.071L1226.42 40.9335C1227.22 41.2401 1227.61 41.5773 1227.61 41.9451C1227.61 42.313 1227.28 42.7422 1226.6 43.2326L1224.67 44.6121V51.9692ZM1187.15 87.1914C1181.69 94.3646 1175.44 100.373 1168.39 105.216L1167.19 104.297C1178.66 92.3413 1187.46 79.4051 1193.59 65.4879L1199.38 69.2584C1200.3 69.7489 1200.76 70.2394 1200.76 70.7298C1200.76 71.159 1200.3 71.5269 1199.38 71.8334C1198.46 72.1399 1197.39 73.2129 1196.16 75.0521C1194.94 76.8301 1193.96 78.1483 1193.22 79.0066V99.6985C1193.22 105.891 1193.28 110.274 1193.4 112.849C1193.53 115.424 1193.59 116.804 1193.59 116.988C1193.59 118.153 1192.64 119.225 1190.74 120.206C1188.9 121.249 1187.73 121.77 1187.24 121.77C1186.75 121.77 1186.51 121.065 1186.51 119.655C1186.94 108.006 1187.15 100.649 1187.15 97.5833V87.1914ZM1219.8 87.6512C1226.91 81.8881 1232.76 76.1557 1237.36 70.4539L1243.34 76.2477C1243.71 76.6768 1243.89 77.0447 1243.89 77.3512C1243.89 77.5965 1243.46 77.7804 1242.6 77.903C1240.83 78.0256 1239.35 78.5774 1238.19 79.5584C1231.57 84.8923 1225.44 89.4292 1219.8 93.169V109.447C1219.8 110.55 1220.04 111.255 1220.53 111.562C1221.02 111.93 1222.53 112.206 1225.04 112.389C1227.55 112.573 1229.97 112.665 1232.3 112.665C1237.39 112.665 1240.7 112.328 1242.24 111.654C1243.77 110.979 1244.9 105.462 1245.64 95.1003H1247.29C1247.23 101.17 1247.36 105.124 1247.66 106.964C1248.03 108.742 1248.86 110.152 1250.14 111.194C1250.76 111.684 1251.06 112.175 1251.06 112.665C1251.06 113.217 1250.11 114.259 1248.21 115.792C1246.37 117.386 1241.1 118.183 1232.4 118.183C1230.07 118.245 1227.03 118.183 1223.29 117.999C1219.55 117.815 1216.98 117.141 1215.57 115.976C1214.22 114.811 1213.54 113.217 1213.54 111.194V96.9395C1207.54 100.189 1201.62 102.703 1195.79 104.481L1195.43 102.917C1201.62 99.9744 1207.66 96.4491 1213.54 92.3413V81.3976C1213.54 76.4929 1213.39 71.4349 1213.08 66.2236L1221.64 70.4539C1222.25 70.6992 1222.56 71.0364 1222.56 71.4655C1222.56 71.8334 1222.25 72.1706 1221.64 72.4771L1219.8 73.6727V87.6512Z" fill="#0985F1"/>
<path d="M1124.98 57.763H1115.51C1112.93 57.763 1110.85 58.1002 1109.26 58.7746L1105.95 54.8202C1108.28 55.1267 1110.85 55.28 1113.67 55.28H1124.98V47.3711C1124.98 43.9378 1124.89 40.5964 1124.71 37.347L1132.62 40.6577C1133.6 41.1482 1134.09 41.5774 1134.09 41.9452C1134.09 42.2518 1133.69 42.6503 1132.89 43.1408L1131.05 44.4283V55.28H1144.11L1149.54 49.0265L1155.33 55.9237C1155.76 56.3529 1155.97 56.7821 1155.97 57.2112C1155.97 57.5791 1155.58 57.763 1154.78 57.763H1131.05V71.2817H1149.81L1154.5 65.58L1159.74 71.8335C1160.11 72.324 1160.3 72.7838 1160.3 73.213C1160.3 73.5808 1159.9 73.7647 1159.1 73.7647H1109.9C1107.26 73.7647 1105.18 74.102 1103.65 74.7764L1100.34 70.8219C1102.67 71.1285 1105.21 71.2817 1107.97 71.2817H1124.98V57.763ZM1103.09 42.2211C1103.83 42.7729 1104.2 43.294 1104.2 43.7845C1104.2 44.275 1103.71 44.5202 1102.73 44.5202C1101.81 44.5202 1099.91 45.8997 1097.03 48.6586C1092.12 53.2568 1085.84 58.2228 1078.17 63.5568L1077.07 62.4532C1085.1 55.7705 1092 47.4937 1097.76 37.6229L1103.09 42.2211ZM1088.84 77.9031C1086.08 80.662 1081.85 84.3713 1076.15 89.0308L1075.05 88.2031C1079.03 84.1567 1083.2 79.068 1087.55 72.9371C1091.97 66.7448 1095.49 60.8591 1098.13 55.28L1103.65 59.9702C1104.14 60.4606 1104.38 61.0124 1104.38 61.6255C1104.38 62.1773 1103.92 62.4532 1103 62.4532C1102.14 62.4532 1100.86 63.5874 1099.14 65.8559C1096.07 69.7796 1093.62 72.7531 1091.78 74.7764L1095.74 76.3397C1096.53 76.6463 1096.93 76.9835 1096.93 77.3513C1096.93 77.6579 1096.6 78.087 1095.92 78.6388L1095 79.4665V101.814C1095 107.27 1095.03 111.409 1095.09 114.229C1095.22 117.049 1095.28 118.551 1095.28 118.735C1095.28 119.961 1094.33 121.034 1092.43 121.954C1090.53 122.873 1089.3 123.333 1088.75 123.333C1088.26 123.333 1088.01 122.782 1088.01 121.678L1088.47 113.125C1088.72 109.385 1088.84 105.829 1088.84 102.457V77.9031ZM1141.81 90.0424V111.47C1141.81 114.413 1141.57 116.436 1141.08 117.54C1140.65 118.643 1139.39 119.9 1137.31 121.31C1135.22 122.72 1133.9 123.425 1133.35 123.425C1132.86 123.425 1132.58 122.904 1132.52 121.862C1132.46 120.207 1131.45 118.766 1129.49 117.54C1127.59 116.375 1124.55 115.179 1120.38 113.953L1120.57 112.39C1125.17 113.125 1128.75 113.493 1131.33 113.493C1133.96 113.493 1135.28 112.941 1135.28 111.838V90.0424H1110.73C1108.15 90.0424 1106.07 90.3796 1104.47 91.054L1101.26 87.0995C1103.52 87.4061 1106.07 87.5593 1108.89 87.5593H1135.28C1135.28 84.0034 1135.16 80.0183 1134.91 75.604L1142.82 78.9147C1143.56 79.2826 1143.93 79.5891 1143.93 79.8344C1143.93 80.0796 1143.59 80.4475 1142.91 80.9379L1141.81 81.6736V87.5593H1148.52L1153.58 81.3058L1159.28 88.2031C1159.71 88.6322 1159.93 89.0614 1159.93 89.4906C1159.93 89.8584 1159.53 90.0424 1158.73 90.0424H1141.81ZM1112.11 91.8816C1116.83 94.6406 1119.95 96.8477 1121.49 98.503C1123.02 100.097 1123.79 101.722 1123.79 103.377C1123.79 104.971 1123.39 106.259 1122.59 107.24C1121.79 108.159 1120.78 108.619 1119.56 108.619C1118.39 108.619 1117.53 107.454 1116.98 105.124C1116.06 100.526 1114.1 96.4798 1111.1 92.9852L1112.11 91.8816Z" fill="#0985F1"/>
<path d="M1006.99 71.2817H1016.28L1020.24 66.5916L1024.83 71.8335C1025.32 72.3853 1025.57 72.8451 1025.57 73.213C1025.57 73.5808 1025.14 73.7648 1024.28 73.7648H991.726C989.274 73.7648 987.22 74.0407 985.565 74.5924L982.254 70.7299C984.584 71.0978 987.098 71.2817 989.795 71.2817H1001.38V62.913H997.152C994.761 62.913 992.738 63.2196 991.083 63.8327L987.864 59.9702C990.132 60.2767 992.646 60.43 995.405 60.43H1001.38V52.6131H993.842C991.389 52.6131 989.335 52.9196 987.68 53.5327L984.553 49.5783C986.822 49.9461 989.305 50.13 992.002 50.13H1001.38C1001.38 43.7539 1001.29 39.1557 1001.11 36.3354L1008 39.1863C1008.92 39.4929 1009.38 39.8607 1009.38 40.2899C1009.38 40.7191 1008.95 41.2095 1008.1 41.7613L1006.99 42.4051V50.13H1015.55L1019.59 45.2559L1024.37 50.6818C1024.74 51.2336 1024.93 51.6934 1024.93 52.0613C1024.93 52.4291 1024.53 52.6131 1023.73 52.6131H1006.99V60.43H1012.88L1016.46 56.1997L1020.6 60.9818C1021.03 61.5336 1021.25 61.9934 1021.25 62.3612C1021.25 62.7291 1020.82 62.913 1019.96 62.913H1006.99V71.2817ZM1036.79 65.3041L1046.9 52.1532H1033.57C1029.77 57.7937 1026.15 62.3919 1022.72 65.9478L1021.52 64.9362C1025.57 58.744 1030.2 49.3024 1035.41 36.6113L1041.57 40.4738C1042.31 40.903 1042.67 41.3322 1042.67 41.7613C1042.67 42.1905 1042.12 42.589 1041.02 42.9569C1039.92 43.3247 1038.97 44.1217 1038.17 45.3479L1035.41 49.5783H1047.27L1051.41 45.4399L1056.84 50.6818C1057.63 51.4175 1058.03 52.0613 1058.03 52.6131C1058.03 53.1035 1057.14 53.4407 1055.37 53.6247C1053.65 53.8086 1051.78 54.7895 1049.76 56.5675L1040.01 65.3041H1051.59L1054.63 61.6255L1059.87 65.9478C1060.24 66.2544 1060.42 66.5609 1060.42 66.8675C1060.42 67.1127 1060.24 67.4192 1059.87 67.7871L1058.22 69.0746V79.4665H1059.87L1063.92 74.6844L1068.33 80.1103C1068.88 80.7234 1069.16 81.1832 1069.16 81.4897C1069.16 81.7963 1068.7 81.9495 1067.78 81.9495H1058.22V86.3638C1058.22 88.3257 1058.28 90.165 1058.4 91.8816L1058.77 96.2959C1058.77 97.3382 1057.94 98.3191 1056.29 99.2388C1054.69 100.097 1053.65 100.526 1053.16 100.526C1052.67 100.526 1052.42 100.128 1052.42 99.3307V96.112H1042.86V111.93C1042.86 114.076 1042.61 115.7 1042.12 116.804C1041.69 117.907 1040.53 119.103 1038.63 120.39C1036.79 121.678 1035.53 122.322 1034.86 122.322C1034.43 122.322 1034.09 121.831 1033.85 120.85C1033.42 119.011 1032.71 117.724 1031.73 116.988C1030.81 116.252 1028.7 115.394 1025.39 114.413L1025.85 112.849C1029.71 113.401 1032.34 113.677 1033.75 113.677C1035.16 113.677 1036.05 113.463 1036.42 113.033C1036.79 112.665 1036.97 111.991 1036.97 111.01V96.112H1031.55C1029.09 96.112 1027.07 96.4185 1025.48 97.0316L1022.07 93.0772C1023.85 93.3837 1026.37 93.537 1029.62 93.537H1036.97V81.9495H1029.34C1026.83 81.9495 1024.77 82.2867 1023.18 82.9611L1019.96 79.0067C1022.23 79.3133 1024.71 79.4665 1027.41 79.4665H1036.97V67.8791H1034.21C1031.7 67.8791 1029.65 68.2163 1028.05 68.8907L1024.74 64.7523C1027.01 65.1202 1029.49 65.3041 1032.19 65.3041H1036.79ZM1042.86 79.4665H1052.42V67.8791H1042.86V79.4665ZM1052.42 81.9495H1042.86V93.537H1052.42V81.9495ZM997.06 101.814V117.907C997.06 119.44 996.294 120.513 994.761 121.126C993.29 121.739 992.248 122.046 991.634 122.046C991.083 122.046 990.899 121.096 991.083 119.195C991.328 116.252 991.451 111.623 991.451 105.308V85.7201C991.451 82.6546 991.359 79.4972 991.175 76.2478L997.152 80.0183H1011.31L1014.17 76.8915L1018.95 81.2138C1019.44 81.5817 1019.68 81.9495 1019.68 82.3174C1019.68 82.6853 1019.35 83.0838 1018.67 83.5129L1017.48 84.2486V110.274C1017.48 112.727 1017.23 114.505 1016.74 115.608C1016.25 116.773 1015.05 118.03 1013.15 119.379C1011.25 120.789 1010.06 121.494 1009.57 121.494C1009.08 121.494 1008.74 120.85 1008.56 119.563C1008.43 118.275 1007.97 117.325 1007.18 116.712C1006.44 116.16 1004.51 115.394 1001.38 114.413L1001.93 112.849C1004.88 113.217 1007.02 113.401 1008.37 113.401C1009.72 113.401 1010.58 113.187 1010.95 112.757C1011.31 112.328 1011.5 111.409 1011.5 109.999V101.814H997.06ZM997.06 89.5826H1011.5V82.5933H997.06V89.5826ZM1011.5 92.2495H997.06V99.2388H1011.5V92.2495Z" fill="#0985F1"/>
<path d="M933.697 75.2361C935.291 75.2361 936.609 75.7572 937.652 76.7995C938.755 77.7804 939.307 79.0679 939.307 80.662C939.307 82.1947 938.786 83.4822 937.744 84.5244C936.701 85.5667 935.383 86.0878 933.789 86.0878C932.195 86.0878 930.877 85.536 929.835 84.4325C928.854 83.3289 928.363 82.0721 928.363 80.662C928.363 79.1292 928.884 77.8417 929.927 76.7995C931.03 75.7572 932.287 75.2361 933.697 75.2361Z" fill="#0985F1"/>
<path d="M834.652 35.3237C838.699 36.4886 841.764 37.8068 843.848 39.2782C845.994 40.7496 847.067 42.4049 847.067 44.2442C847.067 45.2865 846.485 46.2674 845.32 47.1871C844.155 48.0454 843.143 48.4746 842.285 48.4746C841.488 48.4746 840.814 48.2906 840.262 47.9228C839.771 47.4936 839.434 46.9725 839.25 46.3594C837.901 42.0677 836.246 38.7264 834.284 36.3353L834.652 35.3237ZM811.753 49.1183H870.978L876.312 43.9683L883.761 50.9576C884.558 51.632 884.956 52.2144 884.956 52.7049C884.956 53.1954 884.343 53.4406 883.117 53.4406C880.603 53.4406 878.458 53.9311 876.68 54.912C874.902 55.8317 872.786 57.2724 870.334 59.2343L868.587 58.4986L872.449 51.6933H812.121C812.244 52.8582 812.305 53.9617 812.305 55.004C812.305 57.7629 811.722 59.9701 810.558 61.6254C809.454 63.2808 807.891 64.1084 805.867 64.1084C804.641 64.1084 803.63 63.7712 802.833 63.0968C802.097 62.4224 801.729 61.6561 801.729 60.7977C801.729 59.8781 802.557 58.6519 804.212 57.1192C805.929 55.5251 807.124 53.8391 807.799 52.0612C808.534 50.2219 808.933 47.9841 808.994 45.3478H810.833C811.201 46.6353 811.508 47.8921 811.753 49.1183ZM866.104 60.062C866.533 60.4912 866.747 60.859 866.747 61.1656C866.747 61.4721 866.318 61.6254 865.46 61.6254H824.812C822.298 61.6254 820.244 61.9626 818.65 62.637L815.156 58.5906C817.485 58.8971 820.06 59.0504 822.881 59.0504H856.172L860.678 53.9004L866.104 60.062ZM856.448 82.5012H827.479C827.479 83.5435 827.326 84.3098 827.019 84.8003C826.713 85.2295 825.793 85.8119 824.26 86.5476C822.789 87.222 821.777 87.5592 821.225 87.5592C820.674 87.5592 820.398 87.314 820.398 86.8235C820.398 86.2717 820.49 85.4441 820.674 84.3405C820.858 83.2369 820.949 81.0911 820.949 77.903V72.6611C820.949 70.27 820.796 67.7257 820.49 65.0281L826.099 68.3388H856.356L859.298 64.2004L865.368 68.7986C865.736 69.1051 865.92 69.4117 865.92 69.7182C865.92 70.0248 865.736 70.3007 865.368 70.5459L862.977 72.1093V75.2361C862.977 76.5236 863.038 77.8417 863.161 79.1905L863.345 82.4092C863.345 83.2063 862.425 84.0033 860.586 84.8003C858.808 85.5973 857.674 85.9958 857.183 85.9958C856.693 85.9958 856.448 85.628 856.448 84.8923V82.5012ZM827.479 79.9262H856.448V70.9138H827.479V79.9262ZM863.621 115.976H819.754V118.459C819.754 119.256 819.57 119.9 819.202 120.39C818.834 120.881 817.915 121.433 816.443 122.046C815.033 122.72 813.96 123.057 813.224 123.057C812.55 123.057 812.213 122.689 812.213 121.954C812.213 121.218 812.274 120.513 812.397 119.839C812.949 116.528 813.224 113.34 813.224 110.274V97.1235C813.224 92.6479 813.133 88.6321 812.949 85.0762L819.11 89.3985H862.701L865.736 85.4441L872.633 90.0423C873.001 90.3488 873.185 90.6553 873.185 90.9619C873.185 91.2684 873.001 91.575 872.633 91.8815L870.61 93.169V108.527C870.61 110.489 870.671 112.298 870.794 113.953L871.07 117.999C871.07 118.98 870.058 119.992 868.035 121.034C866.073 122.076 864.847 122.597 864.356 122.597C863.866 122.597 863.621 122.046 863.621 120.942V115.976ZM844.124 100.802H863.621V91.9735H844.124V100.802ZM819.754 100.802H837.503V91.9735H819.754V100.802ZM819.754 113.493H837.503V103.377H819.754V113.493ZM844.124 113.493H863.621V103.377H844.124V113.493Z" fill="#0985F1"/>
<path d="M772.852 60.154V51.9692C772.852 47.2484 772.73 42.1904 772.484 36.7952L781.221 40.6576C781.895 40.9642 782.233 41.2707 782.233 41.5773C782.233 41.8225 781.926 42.221 781.313 42.7728L779.106 44.888V60.154H782.417L787.383 54.1763L792.9 60.9817C793.33 61.4108 793.544 61.8093 793.544 62.1772C793.544 62.5451 793.023 62.729 791.981 62.729H779.106V111.378C779.106 114.137 778.83 116.068 778.278 117.172C777.788 118.275 776.286 119.563 773.772 121.034C771.32 122.506 769.787 123.241 769.174 123.241C768.622 123.241 768.223 122.475 767.978 120.942C767.794 119.409 766.936 118.153 765.403 117.172C763.871 116.252 760.774 115.271 756.115 114.229L756.299 112.849C762.001 113.769 765.771 114.229 767.61 114.229C769.511 114.229 770.86 114.075 771.657 113.769C772.454 113.524 772.852 112.88 772.852 111.838V63.8326C767.825 81.5509 758.935 95.7747 746.183 106.504L745.355 105.676C755.839 92.7399 763.196 78.4242 767.426 62.729H756.851C754.276 62.729 752.191 63.0662 750.597 63.7406L747.286 59.6942C749.616 60.0007 752.191 60.154 755.011 60.154H772.852ZM721.077 45.6237H737.538L741.217 40.6576L747.838 46.1755C748.39 46.5433 748.666 46.8499 748.666 47.0951C748.666 47.2791 748.39 47.5549 747.838 47.9228L745.355 49.854V82.1334C745.355 84.1566 745.416 86.0878 745.539 87.9271L745.815 92.6173C745.815 93.7821 744.926 94.7937 743.148 95.6521C741.431 96.4491 740.297 96.8476 739.745 96.8476C739.255 96.8476 739.01 96.3571 739.01 95.3762V48.1067H719.237V94.4565C719.237 95.3149 719.053 95.9893 718.686 96.4797C718.379 96.9089 717.551 97.43 716.203 98.0431C714.854 98.6562 713.903 98.9628 713.352 98.9628C712.8 98.9628 712.432 98.7482 712.248 98.319C712.126 97.8899 712.126 97.0622 712.248 95.836C712.8 90.8086 713.076 85.9959 713.076 81.3977V51.5094C713.076 47.463 712.984 43.7231 712.8 40.2898L721.077 45.6237ZM726.319 55.9237L732.664 57.8549C733.645 58.2228 734.136 58.6213 734.136 59.0504C734.136 59.4796 733.829 59.9088 733.216 60.3379C732.603 60.7058 732.296 62.0239 732.296 64.2924C732.235 74.5923 731.959 82.348 731.469 87.5592C731.039 92.7705 730.396 96.6024 729.537 99.0547C728.74 101.507 727.392 104.143 725.491 106.964C723.59 109.723 721.138 112.389 718.134 114.964C715.13 117.601 711.42 120.39 707.006 123.333L706.087 122.414C711.788 118.122 716.172 113.554 719.237 108.711C722.364 103.868 724.357 98.6869 725.215 93.169C726.135 87.6512 726.594 81.3977 726.594 74.4084C726.594 67.3578 726.503 61.1963 726.319 55.9237ZM730.457 100.802C741.37 105.216 746.827 109.232 746.827 112.849C746.827 114.382 746.367 115.762 745.447 116.988C744.589 118.275 743.822 118.919 743.148 118.919C742.474 118.919 741.952 118.704 741.585 118.275C741.217 117.907 740.696 116.896 740.021 115.24C739.408 113.646 737.998 111.439 735.791 108.619C733.645 105.86 731.591 103.684 729.629 102.09L730.457 100.802Z" fill="#0985F1"/>
<path d="M664.795 67.8791C661.484 74.9909 658.388 80.5394 655.506 84.5245L654.219 83.7888C658.572 73.7954 661.668 65.396 663.507 58.5907C665.408 51.7241 666.849 44.1524 667.83 35.8756L675.922 39.2783C676.719 39.5848 677.118 39.922 677.118 40.2899C677.118 40.5964 676.597 40.9949 675.554 41.4854C674.512 41.9146 673.562 43.7539 672.704 47.0032C671.845 50.2526 670.68 53.7473 669.209 57.4871H689.809L694.867 51.3255L700.845 58.3148C701.151 58.8053 701.304 59.2038 701.304 59.5103C701.304 59.8169 700.998 59.9702 700.385 59.9702H688.337C687.602 68.6148 686.437 75.8186 684.843 81.5817C683.249 87.3447 680.827 92.9852 677.578 98.503C682.482 104.941 690.177 109.815 700.661 113.125V114.137C696.124 114.873 693.426 116.589 692.568 119.287C692.384 119.961 692.108 120.298 691.74 120.298C691.434 120.298 691.127 120.207 690.821 120.023C690.514 119.839 689.104 118.643 686.59 116.436C684.138 114.229 681.839 112.022 679.693 109.815C677.608 107.607 675.8 105.462 674.267 103.377C671.14 106.994 666.511 110.52 660.38 113.953C654.311 117.386 647.935 120.115 641.252 122.138L640.608 120.85C655.506 113.922 665.684 106.32 671.14 98.0432C667.094 90.5635 664.979 80.5088 664.795 67.8791ZM668.197 59.9702C667.707 61.2576 667.186 62.5145 666.634 63.7407C667.431 75.3281 669.945 84.9843 674.175 92.7093C678.835 84.3099 681.379 73.3969 681.808 59.9702H668.197ZM631.412 36.0595C635.458 38.0827 638.554 39.9833 640.7 41.7613C642.907 43.5393 644.011 45.4399 644.011 47.4631C644.011 49.425 643.49 50.9883 642.447 52.1532C641.405 53.3181 640.148 53.9005 638.677 53.9005C637.267 53.9005 636.47 52.4904 636.286 49.6702C635.918 45.1946 633.987 41.0562 630.492 37.2551L631.412 36.0595ZM628.745 60.0621H624.055C621.541 60.0621 619.457 60.3687 617.801 60.9818L614.398 57.0273C616.728 57.3952 619.273 57.5791 622.032 57.5791H647.873L653.575 50.7738L660.105 58.4987C660.411 58.9279 660.564 59.2958 660.564 59.6023C660.564 59.9088 660.166 60.0621 659.369 60.0621H635.274L634.631 72.9371H644.747L647.597 68.9826L653.759 73.6728C654.127 73.918 654.311 74.1939 654.311 74.5005C654.311 74.807 654.096 75.0829 653.667 75.3281L651.368 76.7076C651.184 85.5361 650.939 92.4028 650.632 97.3075C650.326 102.212 649.989 105.462 649.621 107.056C649.253 108.65 648.517 109.999 647.414 111.102C646.31 112.267 644.869 113.371 643.091 114.413C641.375 115.455 640.302 115.976 639.872 115.976C639.443 115.976 639.137 115.455 638.953 114.413C638.585 112.574 637.88 111.255 636.838 110.458C635.795 109.723 633.312 108.864 629.389 107.883L629.848 106.32C634.017 106.749 636.96 106.964 638.677 106.964C640.455 106.964 641.65 106.718 642.264 106.228C642.938 105.738 643.428 104.695 643.735 103.101C644.103 101.507 644.44 98.595 644.747 94.3647C645.053 90.073 645.298 83.7581 645.482 75.4201H634.447C633.772 87.1915 632.331 96.112 630.124 102.182C627.979 108.251 623.196 114.566 615.778 121.126L614.582 120.023C619.548 114.627 623.166 107.914 625.434 99.8825C627.764 91.851 628.929 81.4897 628.929 68.7987C628.929 65.9785 628.867 63.0663 628.745 60.0621Z" fill="#0985F1"/>
<path d="M557.289 37.347C564.094 39.0637 568.171 40.5964 569.52 41.9452C570.93 43.2327 571.635 44.7042 571.635 46.3595C571.635 47.9535 571.084 49.2717 569.98 50.314C568.876 51.2949 567.589 51.7854 566.117 51.7854C564.707 51.7854 563.91 50.927 563.726 49.2104C563.113 44.5509 560.814 40.9949 556.829 38.5426L557.289 37.347ZM538.344 52.9809H594.074L598.029 48.1988L605.754 55.0041C606.49 55.6172 606.857 56.1996 606.857 56.7514C606.857 57.3032 606.152 57.6404 604.742 57.763C603.332 57.8856 601.37 58.7746 598.857 60.43C596.343 62.024 593.768 64.2312 591.132 67.0514L589.384 66.2237L595.086 55.5559H538.896C539.141 57.0886 539.264 58.5294 539.264 59.8782C539.264 63.1276 538.651 65.7945 537.425 67.8791C536.26 69.9023 534.605 70.9139 532.459 70.9139C531.478 70.9139 530.619 70.638 529.884 70.0862C529.148 69.5344 528.78 68.6454 528.78 67.4192C528.78 66.1931 529.424 64.8136 530.711 63.2809C533.716 59.7249 535.218 55.5559 535.218 50.7738C535.218 49.9154 535.156 49.0571 535.034 48.1988L537.057 48.0149C537.793 50.5285 538.222 52.1839 538.344 52.9809ZM552.323 80.5701H533.378C530.803 80.5701 528.719 80.9073 527.125 81.5817L523.722 77.4433C526.052 77.8112 528.627 77.9951 531.447 77.9951H553.518C557.258 70.0862 559.925 63.4035 561.519 57.947L569.06 61.6255C569.857 61.9934 570.256 62.3612 570.256 62.7291C570.256 63.0356 569.796 63.4035 568.876 63.8326L566.485 65.0282L559.772 77.9951H596.833L602.811 70.9139L609.065 78.271C609.678 79.0067 609.984 79.5891 609.984 80.0183C609.984 80.3862 609.494 80.5701 608.513 80.5701H584.142C581.2 89.0921 577.429 96.2039 572.831 101.906C583.621 104.971 590.549 107.669 593.615 109.999C596.741 112.328 598.305 114.934 598.305 117.815C598.305 119.839 597.722 120.85 596.558 120.85C595.699 120.85 594.596 120.329 593.247 119.287C586.503 113.83 578.563 109.293 569.428 105.676C560.661 114.75 546.437 120.421 526.757 122.69L526.205 120.666C543.126 117.54 555.634 111.868 563.726 103.653C556.982 101.446 549.687 99.8825 541.839 98.9629C545.272 94.1807 548.767 88.0498 552.323 80.5701ZM576.509 80.5701H558.484L550.484 96.2039C555.388 97.1849 560.814 98.503 566.761 100.158C571.053 94.8245 574.302 88.295 576.509 80.5701Z" fill="#0985F1"/>
</svg>
