<svg width="284" height="290" viewBox="0 0 284 290" fill="none" xmlns="http://www.w3.org/2000/svg">
<path fill-rule="evenodd" clip-rule="evenodd" d="M141.781 0C220.082 0 283.567 64.8582 283.567 144.864V144.864L283.526 148.387C283.279 158.927 281.929 169.19 279.59 179.052V179.052L279.117 180.991C263.407 243.519 207.88 289.728 141.781 289.728V289.728L139.436 289.708C62.2117 288.429 0 224.069 0 144.864V144.864L0.0189938 142.468C1.27098 63.5675 64.2579 0 141.781 0ZM141.782 6.16216L139.733 6.17773C80.3996 7.07991 30.1936 47.088 12.6883 102.036V102.036L11.9445 104.593C9.82114 112.308 8.67664 120.441 8.67664 128.853C8.67664 178.292 47.9038 218.379 96.2954 218.379V218.379L98.1079 218.36C137.885 217.535 171.159 189.623 180.98 151.94V151.94L181.449 150.275C189.585 122.829 213.48 110.677 233.358 110.677V110.677L235.252 110.71C244.681 111.041 253.489 113.833 261.104 118.478V118.478L262.16 119.147C271.195 125.108 277.224 135.412 277.467 147.167V147.167L277.526 144.865L277.508 142.575C276.307 67.1488 215.881 6.16216 141.782 6.16216V6.16216Z" fill="#1B88EE"/>
<path fill-rule="evenodd" clip-rule="evenodd" d="M33.3545 136.792C23.9084 136.792 18.2219 142.641 18.2219 149.854V149.854C18.2219 151.247 18.4492 152.596 18.8494 153.861V153.861C29.496 187.644 61.1248 212.213 98.3856 212.213V212.213C119.333 212.213 138.487 204.426 153.145 191.621V191.621C147.232 192.96 141.081 193.691 134.767 193.691V193.691C104.502 193.691 77.9618 177.476 63.3529 153.278V153.278H63.343C57.3503 143.397 46.4912 136.792 34.0857 136.792V136.792H33.3545Z" fill="#1B88EE"/>
</svg>
