<svg width="1860" height="387" viewBox="0 0 1860 387" fill="none" xmlns="http://www.w3.org/2000/svg">
<g clip-path="url(#clip0_2989_1280)">
<path fill-rule="evenodd" clip-rule="evenodd" d="M281.769 88.5535C246.884 53.6677 190.53 53.6677 155.644 88.5535C123.442 123.439 123.442 179.793 155.644 214.679C190.53 249.565 246.884 249.565 281.769 214.679C316.655 179.793 316.655 123.439 281.769 88.5535ZM214.681 193.211L179.796 158.325C177.112 155.641 177.112 150.274 179.796 144.907L214.681 112.705C217.365 107.338 222.732 107.338 225.415 112.705L260.301 147.591C262.985 150.274 262.985 155.641 260.301 161.009L225.415 193.211C222.732 195.894 217.365 195.894 214.681 193.211Z" fill="white"/>
<path fill-rule="evenodd" clip-rule="evenodd" d="M1376.65 359.588H1207.58V319.335H1357.86V300.551C1357.86 295.184 1352.49 292.5 1349.81 292.5H1207.58V257.614L1212.95 238.83H1121.71V289.816H979.485C974.118 289.816 971.435 292.5 971.435 297.867V316.652H1121.71V356.904H952.65C947.283 356.904 944.6 362.272 944.6 364.955V383.74H1387.38V364.955C1384.7 362.272 1382.01 359.588 1376.65 359.588Z" fill="white"/>
<path fill-rule="evenodd" clip-rule="evenodd" d="M1384.7 211.999V193.214C1384.7 187.847 1382.01 185.163 1376.65 185.163H1325.66V53.6709H1387.38V34.8863C1387.38 29.5192 1384.7 26.8357 1379.33 26.8357H1328.34V16.1016L1333.71 0.000488281H1239.79V26.8357H1084.14V0.000488281H1000.95V26.8357H949.967C944.6 26.8357 941.916 32.2027 941.916 34.8863V53.6709H1000.95V185.163H949.967C944.6 185.163 941.916 190.53 941.916 193.214V211.999H992.903L939.232 273.72H1019.74C1025.11 273.72 1030.47 268.353 1035.84 265.669L1084.14 211.999H1247.84L1296.14 265.669C1298.82 268.353 1304.19 273.72 1312.24 273.72H1390.06L1336.39 211.999H1384.7ZM1239.79 185.163H1084.14V158.328H1239.79V185.163ZM1239.79 131.493H1084.14V107.341H1239.79V131.493ZM1239.79 77.8226H1084.14V53.6709H1239.79V77.8226Z" fill="white"/>
<path fill-rule="evenodd" clip-rule="evenodd" d="M1846.26 359.593H1784.54L1830.16 276.403H1760.39C1755.02 276.403 1746.97 279.087 1744.29 284.454L1704.03 359.593H1679.88V254.935H1851.63V238.834C1851.63 233.467 1846.26 230.784 1843.58 230.784H1679.88V198.581V179.797H1824.79V163.696C1824.79 158.329 1819.43 155.645 1816.74 155.645H1454.47C1449.1 155.645 1446.42 161.012 1446.42 163.696V182.48H1591.33V230.784H1427.63C1422.26 230.784 1419.58 236.151 1419.58 238.834V257.619H1591.33V359.593H1567.17L1529.61 284.454C1526.92 279.087 1521.55 276.403 1513.5 276.403H1438.37L1481.3 359.593H1422.26C1416.9 359.593 1414.21 364.96 1414.21 367.643V386.428H1856.99V367.643C1856.99 362.276 1851.63 359.593 1846.26 359.593Z" fill="white"/>
<path fill-rule="evenodd" clip-rule="evenodd" d="M88.5562 211.999L142.227 26.8362H311.288L287.137 61.7219H348.858V161.012L322.022 158.329C322.022 169.063 319.339 179.797 313.972 190.531L429.363 211.999V80.5066L437.414 53.6714H381.06L415.946 0.000976562H8.05056C5.36704 0.000976562 0 5.36802 0 8.05154V26.8362H53.6704L0 211.999H88.5562Z" fill="white"/>
<path fill-rule="evenodd" clip-rule="evenodd" d="M434.731 359.59H415.946V252.25L429.364 220.047H297.871C284.454 236.148 265.669 246.883 241.517 252.25V356.907H198.581V252.25C177.113 246.883 158.328 236.148 144.911 220.047H24.1522V356.907H8.05105C2.68401 356.907 0.000488281 362.274 0.000488281 364.957V383.742H442.781V364.957C442.781 362.274 437.414 359.59 434.731 359.59ZM152.961 359.59H110.025V249.566H152.961V359.59ZM330.073 359.59H287.137V249.566H330.073V359.59Z" fill="white"/>
<path fill-rule="evenodd" clip-rule="evenodd" d="M1526.93 131.493L1534.98 126.126L1636.95 42.9368L1744.29 131.493C1749.66 136.86 1757.71 139.544 1765.76 139.544H1859.68L1714.77 13.4181C1706.72 5.36753 1695.99 0.000488281 1685.25 0.000488281H1642.32H1626.22H1583.28C1572.55 0.000488281 1564.49 5.36753 1556.44 10.7346L1411.53 136.86H1505.46C1513.51 136.86 1518.88 134.177 1526.93 131.493Z" fill="white"/>
<path fill-rule="evenodd" clip-rule="evenodd" d="M544.75 0.000488281H493.763L563.535 126.126H635.99L576.952 18.7851C571.585 8.05105 558.168 0.000488281 544.75 0.000488281Z" fill="white"/>
<path fill-rule="evenodd" clip-rule="evenodd" d="M805.058 18.7851L746.021 126.126H818.476L888.247 0.000488281H837.26C823.843 0.000488281 813.109 8.05105 805.058 18.7851Z" fill="white"/>
<path fill-rule="evenodd" clip-rule="evenodd" d="M797.008 171.746H912.4V152.961C912.4 147.594 907.033 144.911 904.349 144.911H737.971V0.000488281H646.731V142.227H480.353C474.986 142.227 472.302 147.594 472.302 150.278V169.062H587.694L472.302 383.744H544.757C550.124 383.744 558.175 381.06 560.858 375.693L649.415 211.999V386.427H740.654V211.999L829.21 375.693C831.894 381.06 837.261 386.427 845.312 386.427H917.767L797.008 171.746Z" fill="white"/>
</g>
<defs>
<clipPath id="clip0_2989_1280">
<rect width="1859.68" height="386.427" fill="white"/>
</clipPath>
</defs>
</svg>
